# xmcd
#
# Track frame offsets: 
#        150
#        10649
#        24075
#        39066
#        53957
#        70498
#        80080
#        93821
#        104680
#        116564
#        132243
#        145463
#        156996
#
# Disc length: 2232 seconds
#
# Revision: 0
# Processed by: cddbd v1.5.2PL0 Copyright (c) Steve Scherf et al.
# Submitted via: ExactAudioCopy v1.0b1
#
DISCID=a708b60d
DTITLE=Dailey and Vincent - Dailey and Vincent
DYEAR=2008
DGENRE=Bluegrass
TTITLE0=Sweet Carrie
TTITLE1=More Than A Name On A Wall
TTITLE2=Cumberland River
TTITLE3=River Of Time
TTITLE4=By The Mark
TTITLE5=Poor Boy Workin Blues
TTITLE6=Take Me Back (And Leave Me There)
TTITLE7=My Savior Walks With Me Today
TTITLE8=Dont You Call My Name
TTITLE9=Believe
TTITLE10=Music Of The Mountains
TTITLE11=Place On Calvary
TTITLE12=Do You Want To Go To Heaven When You
EXTD=
EXTT0=
EXTT1=
EXTT2=
EXTT3=
EXTT4=
EXTT5=
EXTT6=
EXTT7=
EXTT8=
EXTT9=
EXTT10=
EXTT11=
EXTT12=
PLAYORDER=
